<svg width="290" height="68" viewBox="0 0 290 68" fill="none" xmlns="http://www.w3.org/2000/svg">
<path d="M285.935 21.103C288.583 21.2262 289.938 22.5812 290 25.1681C289.938 27.6934 288.583 29.0176 285.935 29.1408C275.772 29.1408 270.691 35.0229 270.691 46.787V62.3083C270.568 65.1415 269.213 66.5889 266.626 66.6505C264.1 66.5889 262.776 65.1415 262.653 62.3083V25.8148C262.776 22.92 264.1 21.4418 266.626 21.3802C269.213 21.4418 270.568 22.92 270.691 25.8148V29.0484H270.876C274.017 23.7515 279.037 21.103 285.935 21.103Z" fill="#1D1D1D"/>
<path d="M253.935 41.8588V42.0436C253.935 43.645 253.473 44.9076 252.549 45.8315C251.625 46.6938 250.363 47.1249 248.761 47.1249H216.333C216.949 51.0053 218.612 54.0849 221.322 56.3638C224.094 58.5811 227.574 59.6898 231.762 59.6898C237.12 59.6898 241.247 57.9344 244.142 54.4236C244.943 53.4382 245.99 52.9454 247.283 52.9454C249.747 53.007 251.04 54.2697 251.163 56.7333C251.163 57.5956 250.886 58.3963 250.332 59.1354C245.959 64.494 239.769 67.1732 231.762 67.1732C224.556 67.1732 218.766 65.0483 214.393 60.7984C212.915 59.2586 211.714 57.7496 210.79 56.2714C209.866 54.7932 209.188 53.2226 208.757 51.5596C208.388 49.835 208.172 48.634 208.11 47.9564C208.049 47.2173 207.956 45.8931 207.833 43.9837C207.833 40.3498 208.542 36.8698 209.958 33.5438C211.375 30.0331 214.054 26.9843 217.996 24.3974C221.938 21.8105 226.373 20.6095 231.3 20.7942C237.767 20.7942 243.156 22.8268 247.468 26.8919C251.779 30.957 253.935 35.9459 253.935 41.8588ZM240.908 31.5113C238.26 29.3556 235.057 28.2777 231.3 28.2777C227.543 28.2777 224.309 29.3556 221.599 31.5113C218.951 33.6054 217.257 36.4079 216.518 39.9186H246.082C245.343 36.4079 243.618 33.6054 240.908 31.5113Z" fill="#1D1D1D"/>
<path d="M203.406 57.2393C203.406 57.8552 203.252 58.4711 202.944 59.087C200.295 64.4456 195.368 67.1248 188.162 67.1248C182.988 67.1248 178.923 65.585 175.966 62.5054C173.01 59.3642 171.532 55.0527 171.532 49.571V11.1374C171.655 8.36577 173.01 6.91835 175.597 6.79517C178.122 6.85676 179.446 8.30418 179.57 11.1374V21.8545H197.123C199.649 21.9161 200.973 23.1787 201.096 25.6424C201.034 28.0445 199.71 29.2764 197.123 29.338H179.57V49.8482C179.57 52.9894 180.339 55.4223 181.879 57.1469C183.481 58.8099 185.698 59.6414 188.531 59.6414C191.98 59.6414 194.66 58.1016 196.569 55.0219C197.247 53.9749 198.294 53.4205 199.71 53.359C201.989 53.4205 203.221 54.714 203.406 57.2393Z" fill="#1D1D1D"/>
<path d="M132.485 34.9112C132.424 36.5742 133.04 37.7444 134.333 38.4219C136.55 39.3458 139.907 39.8078 144.403 39.8078C151.671 39.931 156.783 41.0396 159.74 43.1338C162.758 45.1663 164.267 48.5231 164.267 53.2041C164.267 57.6387 162.542 61.0879 159.093 63.5516C155.705 65.9537 150.963 67.1548 144.865 67.1548C142.586 67.0932 140.523 66.9392 138.675 66.6928C136.889 66.508 135.442 66.2925 134.333 66.0461C133.286 65.8613 132.177 65.5226 131.007 65.0298C129.898 64.5371 129.159 64.1675 128.79 63.9212C128.42 63.6748 127.773 63.2129 126.849 62.5353C125.926 61.8578 125.34 61.4267 125.094 61.2419C124.417 60.4412 124.016 59.4865 123.893 58.3779C124.078 55.8526 125.31 54.5591 127.589 54.4975C128.697 54.4975 129.683 54.8979 130.545 55.6986C133.748 58.5318 138.336 59.9485 144.311 59.9485C148.068 59.9485 150.994 59.3633 153.088 58.1931C155.182 56.9612 156.229 55.2366 156.229 53.0193C156.291 51.11 155.613 49.8165 154.196 49.139C152.041 48.0303 148.53 47.476 143.664 47.476C136.766 47.476 131.838 46.4597 128.882 44.4272C125.926 42.3947 124.447 39.2227 124.447 34.9112C124.447 30.6613 126.172 27.2429 129.621 24.6561C133.132 22.0692 137.844 20.7758 143.757 20.7758C151.024 20.7758 156.722 22.4695 160.848 25.8571C161.834 26.781 162.327 27.8281 162.327 28.9983C162.203 31.5852 160.941 32.9402 158.539 33.0634C157.553 33.0634 156.753 32.7863 156.137 32.2319C152.811 29.4603 148.869 28.0744 144.311 28.0744C140.677 28.0744 137.813 28.6904 135.719 29.9222C133.625 31.1541 132.547 32.8171 132.485 34.9112Z" fill="#1D1D1D"/>
<path d="M110.862 21.3484C113.448 21.41 114.803 22.8882 114.927 25.783V62.4613C114.865 65.1097 113.51 66.4956 110.862 66.6187C108.398 66.5571 107.074 65.1713 106.889 62.4613V60.0592H106.704C103.193 64.8018 97.9887 67.1731 91.0904 67.1731C84.9928 67.1731 80.3118 65.4177 77.0474 61.9069C73.8446 58.3962 72.2432 53.284 72.2432 46.5704V25.783C72.3048 22.9498 73.6598 21.4716 76.3083 21.3484C78.8335 21.41 80.1578 22.8882 80.281 25.783V45.8313C80.281 50.3276 81.3588 53.7767 83.5146 56.1788C85.6703 58.5193 88.8423 59.6896 93.0306 59.6896C97.2804 59.6896 100.637 58.3038 103.101 55.5321C105.626 52.6989 106.889 48.8802 106.889 44.076V25.783C106.95 22.9498 108.275 21.4716 110.862 21.3484Z" fill="#1D1D1D"/>
<path d="M57.9341 0.82666C60.521 0.888252 61.876 2.33567 61.9992 5.16892V62.265C61.876 65.0982 60.521 66.5457 57.9341 66.6072C55.4088 66.5457 54.0846 65.0982 53.9614 62.265V5.16892C54.0846 2.33567 55.4088 0.888252 57.9341 0.82666Z" fill="#1D1D1D"/>
<path d="M46.191 54.7881C46.191 55.9873 45.8792 56.9706 45.2556 57.738C43.1931 60.568 40.4111 62.8224 36.9096 64.5012C33.4081 66.132 29.4509 66.9474 25.0381 66.9474C21.2488 66.9474 17.8432 66.3479 14.8214 65.1487C10.3126 63.374 6.7152 60.4721 4.02912 56.4429C1.34304 52.2699 0 47.4494 0 41.9813C0 36.4173 1.34304 31.6207 4.02912 27.5916C4.84453 26.2965 6.09164 24.8096 7.77044 23.1308C9.54517 21.356 11.9674 19.8931 15.0372 18.7419C18.107 17.5907 21.4407 17.0151 25.0381 17.0151C33.2402 17.0151 39.6916 19.7492 44.3922 25.2173C45.2077 26.0807 45.6394 27.1599 45.6873 28.455C45.6394 29.7021 45.2316 30.7093 44.4642 31.4768C43.6967 32.2442 42.7134 32.628 41.5143 32.628C39.9794 32.532 38.7803 31.9565 37.9169 30.9012C36.4779 29.0305 34.943 27.7115 33.3122 26.944C30.6741 25.553 27.94 24.8575 25.11 24.8575C20.3135 24.8575 16.3803 26.4644 13.3105 29.6781C10.2886 32.8438 8.77772 36.9449 8.77772 41.9813C8.77772 47.0177 10.2886 51.1427 13.3105 54.3564C16.3803 57.5222 20.3135 59.105 25.11 59.105C30.9619 59.105 35.4227 56.8506 38.4925 52.3419C39.3559 51.2387 40.531 50.6631 42.0179 50.6151C43.313 50.6151 44.3203 50.9988 45.0398 51.7663C45.8072 52.5337 46.191 53.541 46.191 54.7881Z" fill="#FE6523"/>
</svg>
